<svg width="242" height="232" viewBox="0 0 242 232" fill="none" xmlns="http://www.w3.org/2000/svg">
<path d="M80.9384 227.716H82.6044C81.4424 225.672 80.9524 223.558 80.9524 221.164C80.9524 218.77 81.4424 216.656 82.6044 214.612H80.9384C79.8464 216.278 79.2304 218.588 79.2304 221.164C79.2304 223.74 79.8464 226.022 80.9384 227.716ZM86.002 223.46L88.62 220.968C89.978 219.694 90.244 218.826 90.244 217.874C90.244 216.138 88.872 215.06 86.744 215.06C85.134 215.06 83.776 215.662 83.02 216.684L84.294 217.664C84.84 216.964 85.638 216.642 86.59 216.642C87.794 216.642 88.41 217.16 88.41 218.056C88.41 218.602 88.242 219.176 87.29 220.086L83.398 223.782V225H90.622V223.46H86.002ZM95.7194 225.14C98.0574 225.14 99.8214 223.32 99.8214 220.1C99.8214 216.88 98.0574 215.06 95.7194 215.06C93.3954 215.06 91.6314 216.88 91.6314 220.1C91.6314 223.32 93.3954 225.14 95.7194 225.14ZM95.7194 223.558C94.3894 223.558 93.4654 222.466 93.4654 220.1C93.4654 217.734 94.3894 216.642 95.7194 216.642C97.0634 216.642 97.9874 217.734 97.9874 220.1C97.9874 222.466 97.0634 223.558 95.7194 223.558ZM109.787 221.234H108.051V219.26H106.343V221.234H103.137L107.687 215.2H105.741L100.911 221.514V222.774H106.287V225H108.051V222.774H109.787V221.234ZM113.789 215.06C111.787 215.06 110.205 216.292 110.205 218.238C110.205 220.072 111.647 221.248 113.579 221.248C114.671 221.248 115.609 220.912 116.197 220.226V220.24C116.197 222.466 115.035 223.614 113.187 223.614C112.501 223.614 111.857 223.488 111.325 223.138L110.653 224.51C111.311 224.93 112.249 225.14 113.229 225.14C116.071 225.14 118.031 223.292 118.031 219.932C118.031 216.782 116.463 215.06 113.789 215.06ZM113.929 219.82C112.739 219.82 111.969 219.176 111.969 218.154C111.969 217.132 112.753 216.488 113.887 216.488C115.189 216.488 115.917 217.216 115.917 218.14C115.917 219.106 115.105 219.82 113.929 219.82ZM120.62 227.716C121.726 226.022 122.328 223.74 122.328 221.164C122.328 218.588 121.726 216.278 120.62 214.612H118.954C120.116 216.656 120.62 218.77 120.62 221.164C120.62 223.558 120.116 225.672 118.954 227.716H120.62Z" fill="#808080"/>
<path d="M56.1664 215.2V216.726H58.2384V225H60.0584V215.2H56.1664ZM68.7505 219.4H66.2725V216.95H64.7745V219.4H62.2965V220.8H64.7745V223.25H66.2725V220.8H68.7505V219.4Z" fill="#1C3554"/>
<path fill-rule="evenodd" clip-rule="evenodd" d="M40.0272 224.859L44.988 228L43.6716 222.08L48.0544 218.097L42.2829 217.583L40.0272 212L37.7716 217.583L32 218.097L36.3829 222.08L35.0664 228L40.0272 224.859Z" fill="#FAA307"/>
<path fill-rule="evenodd" clip-rule="evenodd" d="M19 213V227H5V213H19ZM19 211H5C3.9 211 3 211.9 3 213V227C3 228.1 3.9 229 5 229H19C20.1 229 21 228.1 21 227V213C21 211.9 20.1 211 19 211Z" fill="#CCCCCC"/>
<path d="M104.007 187.716H105.673C104.511 185.672 104.021 183.558 104.021 181.164C104.021 178.77 104.511 176.656 105.673 174.612H104.007C102.915 176.278 102.299 178.588 102.299 181.164C102.299 183.74 102.915 186.022 104.007 187.716ZM109.07 183.46L111.688 180.968C113.046 179.694 113.312 178.826 113.312 177.874C113.312 176.138 111.94 175.06 109.812 175.06C108.202 175.06 106.844 175.662 106.088 176.684L107.362 177.664C107.908 176.964 108.706 176.642 109.658 176.642C110.862 176.642 111.478 177.16 111.478 178.056C111.478 178.602 111.31 179.176 110.358 180.086L106.466 183.782V185H113.69V183.46H109.07ZM118.788 185.14C121.126 185.14 122.89 183.32 122.89 180.1C122.89 176.88 121.126 175.06 118.788 175.06C116.464 175.06 114.7 176.88 114.7 180.1C114.7 183.32 116.464 185.14 118.788 185.14ZM118.788 183.558C117.458 183.558 116.534 182.466 116.534 180.1C116.534 177.734 117.458 176.642 118.788 176.642C120.132 176.642 121.056 177.734 121.056 180.1C121.056 182.466 120.132 183.558 118.788 183.558ZM132.856 181.234H131.12V179.26H129.412V181.234H126.206L130.756 175.2H128.81L123.98 181.514V182.774H129.356V185H131.12V182.774H132.856V181.234ZM136.857 175.06C134.855 175.06 133.273 176.292 133.273 178.238C133.273 180.072 134.715 181.248 136.647 181.248C137.739 181.248 138.677 180.912 139.265 180.226V180.24C139.265 182.466 138.103 183.614 136.255 183.614C135.569 183.614 134.925 183.488 134.393 183.138L133.721 184.51C134.379 184.93 135.317 185.14 136.297 185.14C139.139 185.14 141.099 183.292 141.099 179.932C141.099 176.782 139.531 175.06 136.857 175.06ZM136.997 179.82C135.807 179.82 135.037 179.176 135.037 178.154C135.037 177.132 135.821 176.488 136.955 176.488C138.257 176.488 138.985 177.216 138.985 178.14C138.985 179.106 138.173 179.82 136.997 179.82ZM143.689 187.716C144.795 186.022 145.397 183.74 145.397 181.164C145.397 178.588 144.795 176.278 143.689 174.612H142.023C143.185 176.656 143.689 178.77 143.689 181.164C143.689 183.558 143.185 185.672 142.023 187.716H143.689Z" fill="#808080"/>
<path d="M79.2168 183.46L81.8348 180.968C83.1928 179.694 83.4588 178.826 83.4588 177.874C83.4588 176.138 82.0868 175.06 79.9588 175.06C78.3488 175.06 76.9908 175.662 76.2348 176.684L77.5088 177.664C78.0548 176.964 78.8528 176.642 79.8048 176.642C81.0088 176.642 81.6248 177.16 81.6248 178.056C81.6248 178.602 81.4568 179.176 80.5048 180.086L76.6128 183.782V185H83.8368V183.46H79.2168ZM91.5669 179.4H89.0889V176.95H87.5909V179.4H85.1129V180.8H87.5909V183.25H89.0889V180.8H91.5669V179.4Z" fill="#1C3554"/>
<path fill-rule="evenodd" clip-rule="evenodd" d="M40.0272 184.859L44.988 188L43.6716 182.08L48.0544 178.097L42.2829 177.583L40.0272 172L37.7716 177.583L32 178.097L36.3829 182.08L35.0664 188L40.0272 184.859Z" fill="#FAA307"/>
<path fill-rule="evenodd" clip-rule="evenodd" d="M60.0956 184.859L65.0564 188L63.7399 182.08L68.1228 178.097L62.3512 177.583L60.0956 172L57.8399 177.583L52.0684 178.097L56.4512 182.08L55.1348 188L60.0956 184.859Z" fill="#FAA307"/>
<path fill-rule="evenodd" clip-rule="evenodd" d="M19 173V187H5V173H19ZM19 171H5C3.9 171 3 171.9 3 173V187C3 188.1 3.9 189 5 189H19C20.1 189 21 188.1 21 187V173C21 171.9 20.1 171 19 171Z" fill="#CCCCCC"/>
<path d="M124.075 147.716H125.741C124.579 145.672 124.089 143.558 124.089 141.164C124.089 138.77 124.579 136.656 125.741 134.612H124.075C122.983 136.278 122.367 138.588 122.367 141.164C122.367 143.74 122.983 146.022 124.075 147.716ZM129.138 143.46L131.756 140.968C133.114 139.694 133.38 138.826 133.38 137.874C133.38 136.138 132.008 135.06 129.88 135.06C128.27 135.06 126.912 135.662 126.156 136.684L127.43 137.664C127.976 136.964 128.774 136.642 129.726 136.642C130.93 136.642 131.546 137.16 131.546 138.056C131.546 138.602 131.378 139.176 130.426 140.086L126.534 143.782V145H133.758V143.46H129.138ZM137.287 143.46L139.905 140.968C141.263 139.694 141.529 138.826 141.529 137.874C141.529 136.138 140.157 135.06 138.029 135.06C136.419 135.06 135.061 135.662 134.305 136.684L135.579 137.664C136.125 136.964 136.923 136.642 137.875 136.642C139.079 136.642 139.695 137.16 139.695 138.056C139.695 138.602 139.527 139.176 138.575 140.086L134.683 143.782V145H141.907V143.46H137.287ZM151.488 141.234H149.752V139.26H148.044V141.234H144.838L149.388 135.2H147.442L142.612 141.514V142.774H147.988V145H149.752V142.774H151.488V141.234ZM153.612 147.716C154.718 146.022 155.32 143.74 155.32 141.164C155.32 138.588 154.718 136.278 153.612 134.612H151.946C153.108 136.656 153.612 138.77 153.612 141.164C153.612 143.558 153.108 145.672 151.946 147.716H153.612Z" fill="#808080"/>
<path d="M100.979 139.246L103.359 136.418V135.2H96.6807V136.726H101.133L98.9067 139.372V140.618H99.8027C101.287 140.618 101.931 141.192 101.931 142.074C101.931 142.984 101.161 143.558 99.8587 143.558C98.7527 143.558 97.6887 143.18 96.9887 142.592L96.2047 144.006C97.1147 144.72 98.5007 145.14 99.8867 145.14C102.519 145.14 103.765 143.712 103.765 142.06C103.765 140.59 102.827 139.484 100.979 139.246ZM111.703 139.4H109.225V136.95H107.727V139.4H105.249V140.8H107.727V143.25H109.225V140.8H111.703V139.4Z" fill="#1C3554"/>
<path fill-rule="evenodd" clip-rule="evenodd" d="M40.0272 144.859L44.988 148L43.6716 142.08L48.0544 138.097L42.2829 137.583L40.0272 132L37.7716 137.583L32 138.097L36.3829 142.08L35.0664 148L40.0272 144.859Z" fill="#FAA307"/>
<path fill-rule="evenodd" clip-rule="evenodd" d="M60.0956 144.859L65.0564 148L63.7399 142.08L68.1228 138.097L62.3512 137.583L60.0956 132L57.8399 137.583L52.0684 138.097L56.4512 142.08L55.1348 148L60.0956 144.859Z" fill="#FAA307"/>
<path fill-rule="evenodd" clip-rule="evenodd" d="M80.1634 144.859L85.1243 148L83.8078 142.08L88.1907 138.097L82.4191 137.583L80.1634 132L77.9078 137.583L72.1362 138.097L76.5191 142.08L75.2026 148L80.1634 144.859Z" fill="#FAA307"/>
<path fill-rule="evenodd" clip-rule="evenodd" d="M19 133V147H5V133H19ZM19 131H5C3.9 131 3 131.9 3 133V147C3 148.1 3.9 149 5 149H19C20.1 149 21 148.1 21 147V133C21 131.9 20.1 131 19 131Z" fill="#CCCCCC"/>
<path d="M145.088 107.716H146.754C145.592 105.672 145.102 103.558 145.102 101.164C145.102 98.77 145.592 96.656 146.754 94.612H145.088C143.996 96.278 143.38 98.588 143.38 101.164C143.38 103.74 143.996 106.022 145.088 107.716ZM150.152 103.46L152.77 100.968C154.128 99.694 154.394 98.826 154.394 97.874C154.394 96.138 153.022 95.06 150.894 95.06C149.284 95.06 147.926 95.662 147.17 96.684L148.444 97.664C148.99 96.964 149.788 96.642 150.74 96.642C151.944 96.642 152.56 97.16 152.56 98.056C152.56 98.602 152.392 99.176 151.44 100.086L147.548 103.782V105H154.772V103.46H150.152ZM155.318 95.2V96.726H157.39V105H159.21V95.2H155.318ZM169.89 101.234H168.154V99.26H166.446V101.234H163.24L167.79 95.2H165.844L161.014 101.514V102.774H166.39V105H168.154V102.774H169.89V101.234ZM173.681 98.994H172.743L172.953 96.726H177.167V95.2H171.413L170.909 100.534H173.275C175.305 100.534 175.907 101.122 175.907 102.06C175.907 102.984 175.137 103.558 173.835 103.558C172.729 103.558 171.665 103.18 170.951 102.592L170.181 104.006C171.077 104.72 172.477 105.14 173.863 105.14C176.495 105.14 177.741 103.712 177.741 101.99C177.741 100.254 176.579 98.994 173.681 98.994ZM180.149 107.716C181.255 106.022 181.857 103.74 181.857 101.164C181.857 98.588 181.255 96.278 180.149 94.612H178.483C179.645 96.656 180.149 98.77 180.149 101.164C180.149 103.558 179.645 105.672 178.483 107.716H180.149Z" fill="#808080"/>
<path d="M125.556 101.234H123.82V99.26H122.112V101.234H118.906L123.456 95.2H121.51L116.68 101.514V102.774H122.056V105H123.82V102.774H125.556V101.234ZM133.207 99.4H130.729V96.95H129.231V99.4H126.753V100.8H129.231V103.25H130.729V100.8H133.207V99.4Z" fill="#1C3554"/>
<path fill-rule="evenodd" clip-rule="evenodd" d="M40 104.859L44.944 108L43.632 102.08L48 98.0968L42.248 97.5832L40 92L37.752 97.5832L32 98.0968L36.368 102.08L35.056 108L40 104.859Z" fill="#FAA307"/>
<path fill-rule="evenodd" clip-rule="evenodd" d="M60.0684 104.859L65.0124 108L63.7004 102.08L68.0684 98.0968L62.3164 97.5832L60.0684 92L57.8204 97.5832L52.0684 98.0968L56.4364 102.08L55.1244 108L60.0684 104.859Z" fill="#FAA307"/>
<path fill-rule="evenodd" clip-rule="evenodd" d="M80.1362 104.859L85.0802 108L83.7682 102.08L88.1362 98.0968L82.3842 97.5832L80.1362 92L77.8882 97.5832L72.1362 98.0968L76.5042 102.08L75.1922 108L80.1362 104.859Z" fill="#FAA307"/>
<path fill-rule="evenodd" clip-rule="evenodd" d="M100.204 104.859L105.148 108L103.836 102.08L108.204 98.0968L102.452 97.5832L100.204 92L97.9563 97.5832L92.2043 98.0968L96.5723 102.08L95.2603 108L100.204 104.859Z" fill="#FAA307"/>
<path fill-rule="evenodd" clip-rule="evenodd" d="M19 93V107H5V93H19ZM19 91H5C3.9 91 3 91.9 3 93V107C3 108.1 3.9 109 5 109H19C20.1 109 21 108.1 21 107V93C21 91.9 20.1 91 19 91Z" fill="#CCCCCC"/>
<path d="M156.211 67.716H157.877C156.715 65.672 156.225 63.558 156.225 61.164C156.225 58.77 156.715 56.656 157.877 54.612H156.211C155.119 56.278 154.503 58.588 154.503 61.164C154.503 63.74 155.119 66.022 156.211 67.716ZM158.429 55.2V56.726H160.501V65H162.321V55.2H158.429ZM166.743 63.46L169.361 60.968C170.719 59.694 170.985 58.826 170.985 57.874C170.985 56.138 169.613 55.06 167.485 55.06C165.875 55.06 164.517 55.662 163.761 56.684L165.035 57.664C165.581 56.964 166.379 56.642 167.331 56.642C168.535 56.642 169.151 57.16 169.151 58.056C169.151 58.602 168.983 59.176 168.031 60.086L164.139 63.782V65H171.363V63.46H166.743ZM180.945 61.234H179.209V59.26H177.501V61.234H174.295L178.845 55.2H176.899L172.069 61.514V62.774H177.445V65H179.209V62.774H180.945V61.234ZM184.147 63.46L186.765 60.968C188.123 59.694 188.389 58.826 188.389 57.874C188.389 56.138 187.017 55.06 184.889 55.06C183.279 55.06 181.921 55.662 181.165 56.684L182.439 57.664C182.985 56.964 183.783 56.642 184.735 56.642C185.939 56.642 186.555 57.16 186.555 58.056C186.555 58.602 186.387 59.176 185.435 60.086L181.543 63.782V65H188.767V63.46H184.147ZM191.176 67.716C192.282 66.022 192.884 63.74 192.884 61.164C192.884 58.588 192.282 56.278 191.176 54.612H189.51C190.672 56.656 191.176 58.77 191.176 61.164C191.176 63.558 190.672 65.672 189.51 67.716H191.176Z" fill="#808080"/>
<path d="M140.009 58.994H139.071L139.281 56.726H143.495V55.2H137.741L137.237 60.534H139.603C141.633 60.534 142.235 61.122 142.235 62.06C142.235 62.984 141.465 63.558 140.163 63.558C139.057 63.558 137.993 63.18 137.279 62.592L136.509 64.006C137.405 64.72 138.805 65.14 140.191 65.14C142.823 65.14 144.069 63.712 144.069 61.99C144.069 60.254 142.907 58.994 140.009 58.994Z" fill="#1C3554"/>
<path fill-rule="evenodd" clip-rule="evenodd" d="M40.0272 64.8589L44.988 68L43.6716 62.08L48.0544 58.0968L42.2829 57.5832L40.0272 52L37.7716 57.5832L32 58.0968L36.3829 62.08L35.0664 68L40.0272 64.8589Z" fill="#FAA307"/>
<path fill-rule="evenodd" clip-rule="evenodd" d="M60.0956 64.8589L65.0564 68L63.7399 62.08L68.1228 58.0968L62.3512 57.5832L60.0956 52L57.8399 57.5832L52.0684 58.0968L56.4512 62.08L55.1348 68L60.0956 64.8589Z" fill="#FAA307"/>
<path fill-rule="evenodd" clip-rule="evenodd" d="M80.1634 64.8589L85.1243 68L83.8078 62.08L88.1907 58.0968L82.4191 57.5832L80.1634 52L77.9078 57.5832L72.1362 58.0968L76.5191 62.08L75.2026 68L80.1634 64.8589Z" fill="#FAA307"/>
<path fill-rule="evenodd" clip-rule="evenodd" d="M100.232 64.8589L105.192 68L103.876 62.08L108.259 58.0968L102.487 57.5832L100.232 52L97.9759 57.5832L92.2043 58.0968L96.5872 62.08L95.2707 68L100.232 64.8589Z" fill="#FAA307"/>
<path fill-rule="evenodd" clip-rule="evenodd" d="M120.3 64.8589L125.26 68L123.944 62.08L128.327 58.0968L122.555 57.5832L120.3 52L118.044 57.5832L112.272 58.0968L116.655 62.08L115.339 68L120.3 64.8589Z" fill="#FAA307"/>
<path fill-rule="evenodd" clip-rule="evenodd" d="M19 53V67H5V53H19ZM19 51H5C3.9 51 3 51.9 3 53V67C3 68.1 3.9 69 5 69H19C20.1 69 21 68.1 21 67V53C21 51.9 20.1 51 19 51Z" fill="#CCCCCC"/>
<path fill-rule="evenodd" clip-rule="evenodd" d="M226 8.78133L214.391 20.3907L216.276 22.276L226 12.552L235.724 22.276L237.609 20.3907L226 8.78133Z" fill="#1C3554"/>
<path d="M2.28 24C2.104 24 1.96 23.944 1.848 23.832C1.736 23.704 1.68 23.56 1.68 23.4V7.8C1.68 7.624 1.736 7.48 1.848 7.368C1.96 7.256 2.104 7.2 2.28 7.2H8.808C10.888 7.2 12.52 7.68 13.704 8.64C14.888 9.584 15.48 10.928 15.48 12.672C15.48 13.808 15.208 14.768 14.664 15.552C14.12 16.336 13.4 16.928 12.504 17.328L15.792 23.232C15.84 23.328 15.864 23.416 15.864 23.496C15.864 23.624 15.808 23.744 15.696 23.856C15.6 23.952 15.488 24 15.36 24H12.168C11.864 24 11.64 23.928 11.496 23.784C11.352 23.624 11.248 23.48 11.184 23.352L8.448 18.072H6V23.4C6 23.56 5.936 23.704 5.808 23.832C5.696 23.944 5.552 24 5.376 24H2.28ZM6 14.664H8.76C9.512 14.664 10.072 14.48 10.44 14.112C10.824 13.744 11.016 13.248 11.016 12.624C11.016 12 10.832 11.496 10.464 11.112C10.112 10.728 9.544 10.536 8.76 10.536H6V14.664ZM21.7538 24.24C20.8898 24.24 20.1138 24.08 19.4258 23.76C18.7538 23.424 18.2178 22.976 17.8178 22.416C17.4178 21.856 17.2178 21.224 17.2178 20.52C17.2178 19.384 17.6818 18.488 18.6098 17.832C19.5378 17.16 20.7698 16.704 22.3058 16.464L25.3058 16.008V15.672C25.3058 15.096 25.1858 14.656 24.9458 14.352C24.7058 14.048 24.2658 13.896 23.6258 13.896C23.1778 13.896 22.8098 13.984 22.5218 14.16C22.2498 14.336 22.0338 14.576 21.8738 14.88C21.7298 15.088 21.5298 15.192 21.2738 15.192H18.5858C18.4098 15.192 18.2738 15.144 18.1777 15.048C18.0818 14.936 18.0418 14.808 18.0578 14.664C18.0578 14.376 18.1618 14.048 18.3698 13.68C18.5938 13.296 18.9298 12.92 19.3778 12.552C19.8258 12.184 20.4018 11.88 21.1058 11.64C21.8098 11.4 22.6658 11.28 23.6738 11.28C24.6978 11.28 25.5778 11.4 26.3138 11.64C27.0498 11.88 27.6498 12.216 28.1138 12.648C28.5778 13.08 28.9138 13.592 29.1218 14.184C29.3458 14.76 29.4578 15.4 29.4578 16.104V23.4C29.4578 23.56 29.3938 23.704 29.2657 23.832C29.1538 23.944 29.0178 24 28.8578 24H26.0738C25.8978 24 25.7538 23.944 25.6418 23.832C25.5298 23.704 25.4738 23.56 25.4738 23.4V22.56C25.2658 22.864 24.9858 23.144 24.6338 23.4C24.2818 23.656 23.8658 23.856 23.3858 24C22.9218 24.16 22.3778 24.24 21.7538 24.24ZM22.8818 21.504C23.3458 21.504 23.7618 21.408 24.1298 21.216C24.5138 21.008 24.8098 20.696 25.0178 20.28C25.2418 19.848 25.3538 19.312 25.3538 18.672V18.336L23.3138 18.696C22.5618 18.824 22.0098 19.024 21.6578 19.296C21.3218 19.552 21.1538 19.856 21.1538 20.208C21.1538 20.48 21.2338 20.712 21.3938 20.904C21.5538 21.096 21.7618 21.248 22.0178 21.36C22.2898 21.456 22.5778 21.504 22.8818 21.504ZM38.4563 24C37.4323 24 36.5443 23.84 35.7923 23.52C35.0563 23.184 34.4883 22.672 34.0883 21.984C33.6883 21.28 33.4883 20.376 33.4883 19.272V14.664H31.6163C31.4403 14.664 31.2883 14.608 31.1603 14.496C31.0483 14.384 30.9923 14.24 30.9923 14.064V12.12C30.9923 11.944 31.0483 11.8 31.1603 11.688C31.2883 11.576 31.4403 11.52 31.6163 11.52H33.4883V7.56C33.4883 7.384 33.5443 7.24 33.6562 7.128C33.7843 7.016 33.9283 6.96 34.0883 6.96H36.8723C37.0483 6.96 37.1923 7.016 37.3043 7.128C37.4163 7.24 37.4723 7.384 37.4723 7.56V11.52H40.4723C40.6483 11.52 40.7923 11.576 40.9043 11.688C41.0323 11.8 41.0963 11.944 41.0963 12.12V14.064C41.0963 14.24 41.0323 14.384 40.9043 14.496C40.7923 14.608 40.6483 14.664 40.4723 14.664H37.4723V18.936C37.4723 19.48 37.5763 19.912 37.7843 20.232C37.9923 20.552 38.3443 20.712 38.8403 20.712H40.6883C40.8643 20.712 41.0083 20.768 41.1203 20.88C41.2323 20.992 41.2883 21.136 41.2883 21.312V23.4C41.2883 23.56 41.2323 23.704 41.1203 23.832C41.0083 23.944 40.8643 24 40.6883 24H38.4563ZM43.8754 24C43.6994 24 43.5554 23.944 43.4434 23.832C43.3314 23.704 43.2754 23.56 43.2754 23.4V12.12C43.2754 11.944 43.3314 11.8 43.4434 11.688C43.5554 11.576 43.6994 11.52 43.8754 11.52H46.7074C46.8834 11.52 47.0274 11.576 47.1394 11.688C47.2514 11.8 47.3074 11.944 47.3074 12.12V23.4C47.3074 23.56 47.2514 23.704 47.1394 23.832C47.0274 23.944 46.8834 24 46.7074 24H43.8754ZM43.8514 9.72C43.6754 9.72 43.5314 9.664 43.4194 9.552C43.3074 9.44 43.2514 9.296 43.2514 9.12V6.96C43.2514 6.8 43.3074 6.664 43.4194 6.552C43.5314 6.424 43.6754 6.36 43.8514 6.36H46.7314C46.8914 6.36 47.0274 6.424 47.1394 6.552C47.2674 6.664 47.3314 6.8 47.3314 6.96V9.12C47.3314 9.296 47.2674 9.44 47.1394 9.552C47.0274 9.664 46.8914 9.72 46.7314 9.72H43.8514ZM51.4926 24C51.3166 24 51.1726 23.944 51.0606 23.832C50.9486 23.704 50.8926 23.56 50.8926 23.4V12.12C50.8926 11.944 50.9486 11.8 51.0606 11.688C51.1726 11.576 51.3166 11.52 51.4926 11.52H54.2526C54.4286 11.52 54.5726 11.576 54.6846 11.688C54.8126 11.8 54.8766 11.944 54.8766 12.12V13.032C55.2766 12.536 55.8126 12.12 56.4846 11.784C57.1566 11.448 57.9486 11.28 58.8606 11.28C59.7886 11.28 60.6046 11.488 61.3086 11.904C62.0286 12.32 62.5886 12.928 62.9886 13.728C63.4046 14.528 63.6126 15.52 63.6126 16.704V23.4C63.6126 23.56 63.5566 23.704 63.4446 23.832C63.3326 23.944 63.1886 24 63.0126 24H59.9886C59.8286 24 59.6846 23.944 59.5566 23.832C59.4446 23.704 59.3886 23.56 59.3886 23.4V16.848C59.3886 16.096 59.2046 15.52 58.8366 15.12C58.4846 14.704 57.9566 14.496 57.2526 14.496C56.5966 14.496 56.0686 14.704 55.6686 15.12C55.2846 15.52 55.0926 16.096 55.0926 16.848V23.4C55.0926 23.56 55.0286 23.704 54.9006 23.832C54.7886 23.944 54.6526 24 54.4926 24H51.4926ZM72.4344 29.28C71.2024 29.28 70.1784 29.12 69.3624 28.8C68.5624 28.48 67.9224 28.096 67.4424 27.648C66.9784 27.2 66.6424 26.752 66.4344 26.304C66.2264 25.872 66.1144 25.528 66.0984 25.272C66.0824 25.096 66.1384 24.944 66.2664 24.816C66.3944 24.704 66.5464 24.648 66.7224 24.648H69.7704C69.9304 24.648 70.0584 24.688 70.1544 24.768C70.2504 24.848 70.3304 24.976 70.3944 25.152C70.4904 25.328 70.6024 25.504 70.7304 25.68C70.8584 25.872 71.0424 26.032 71.2824 26.16C71.5384 26.288 71.8824 26.352 72.3144 26.352C72.7944 26.352 73.1944 26.272 73.5144 26.112C73.8344 25.968 74.0744 25.72 74.2344 25.368C74.3944 25.032 74.4744 24.576 74.4744 24V22.392C74.1064 22.792 73.6344 23.12 73.0584 23.376C72.4824 23.616 71.7864 23.736 70.9704 23.736C70.1544 23.736 69.4344 23.616 68.8104 23.376C68.1864 23.136 67.6664 22.776 67.2504 22.296C66.8344 21.816 66.5064 21.232 66.2664 20.544C66.0424 19.856 65.9064 19.064 65.8584 18.168C65.8424 17.752 65.8424 17.328 65.8584 16.896C65.9064 16.048 66.0424 15.28 66.2664 14.592C66.4904 13.888 66.8104 13.296 67.2264 12.816C67.6584 12.32 68.1864 11.944 68.8104 11.688C69.4344 11.416 70.1544 11.28 70.9704 11.28C71.8344 11.28 72.5704 11.448 73.1784 11.784C73.8024 12.104 74.3144 12.512 74.7144 13.008V12.12C74.7144 11.96 74.7704 11.824 74.8824 11.712C74.9944 11.584 75.1384 11.52 75.3144 11.52H78.0744C78.2504 11.52 78.3944 11.584 78.5064 11.712C78.6344 11.824 78.6984 11.96 78.6984 12.12V23.664C78.6984 24.88 78.4504 25.904 77.9544 26.736C77.4744 27.568 76.7624 28.2 75.8184 28.632C74.8904 29.064 73.7624 29.28 72.4344 29.28ZM72.2664 20.616C72.7784 20.616 73.1944 20.504 73.5144 20.28C73.8344 20.056 74.0664 19.768 74.2104 19.416C74.3704 19.064 74.4584 18.688 74.4744 18.288C74.4904 18.112 74.4984 17.864 74.4984 17.544C74.4984 17.224 74.4904 16.984 74.4744 16.824C74.4584 16.408 74.3704 16.024 74.2104 15.672C74.0664 15.32 73.8344 15.04 73.5144 14.832C73.1944 14.608 72.7784 14.496 72.2664 14.496C71.7384 14.496 71.3144 14.608 70.9944 14.832C70.6904 15.056 70.4664 15.36 70.3224 15.744C70.1944 16.128 70.1144 16.552 70.0824 17.016C70.0664 17.368 70.0664 17.728 70.0824 18.096C70.1144 18.56 70.1944 18.984 70.3224 19.368C70.4664 19.752 70.6904 20.056 70.9944 20.28C71.3144 20.504 71.7384 20.616 72.2664 20.616ZM86.6614 24.24C85.6214 24.24 84.7334 24.128 83.9974 23.904C83.2774 23.664 82.6854 23.376 82.2214 23.04C81.7734 22.704 81.4374 22.36 81.2134 22.008C80.9894 21.64 80.8694 21.32 80.8534 21.048C80.8374 20.872 80.8934 20.728 81.0214 20.616C81.1494 20.504 81.2854 20.448 81.4294 20.448H84.1654C84.2134 20.448 84.2534 20.456 84.2854 20.472C84.3334 20.488 84.3814 20.52 84.4294 20.568C84.6374 20.68 84.8454 20.824 85.0534 21C85.2614 21.16 85.5014 21.304 85.7734 21.432C86.0454 21.56 86.3734 21.624 86.7574 21.624C87.2054 21.624 87.5814 21.536 87.8854 21.36C88.1894 21.168 88.3414 20.904 88.3414 20.568C88.3414 20.312 88.2694 20.104 88.1254 19.944C87.9814 19.768 87.6854 19.6 87.2374 19.44C86.8054 19.28 86.1494 19.12 85.2694 18.96C84.4374 18.768 83.7094 18.52 83.0854 18.216C82.4614 17.896 81.9814 17.488 81.6454 16.992C81.3094 16.48 81.1414 15.864 81.1414 15.144C81.1414 14.504 81.3494 13.888 81.7654 13.296C82.1814 12.704 82.7894 12.224 83.5894 11.856C84.3894 11.472 85.3814 11.28 86.5654 11.28C87.4774 11.28 88.2774 11.392 88.9654 11.616C89.6534 11.824 90.2294 12.096 90.6934 12.432C91.1574 12.768 91.5094 13.112 91.7494 13.464C91.9894 13.816 92.1174 14.136 92.1334 14.424C92.1494 14.584 92.1014 14.728 91.9894 14.856C91.8774 14.968 91.7494 15.024 91.6054 15.024H89.1094C89.0454 15.024 88.9814 15.016 88.9174 15C88.8534 14.968 88.7974 14.936 88.7494 14.904C88.5574 14.808 88.3654 14.68 88.1734 14.52C87.9814 14.36 87.7574 14.216 87.5014 14.088C87.2454 13.96 86.9254 13.896 86.5414 13.896C86.1094 13.896 85.7734 13.992 85.5334 14.184C85.2934 14.376 85.1734 14.624 85.1734 14.928C85.1734 15.136 85.2374 15.328 85.3654 15.504C85.5094 15.68 85.7894 15.84 86.2054 15.984C86.6374 16.128 87.3014 16.288 88.1974 16.464C89.3014 16.64 90.1814 16.928 90.8374 17.328C91.4934 17.712 91.9574 18.168 92.2294 18.696C92.5174 19.208 92.6614 19.752 92.6614 20.328C92.6614 21.096 92.4294 21.776 91.9654 22.368C91.5014 22.96 90.8214 23.424 89.9254 23.76C89.0454 24.08 87.9574 24.24 86.6614 24.24Z" fill="#1C3554"/>
</svg>
